<?xml version="1.0" standalone="no"?>
<!DOCTYPE svg PUBLIC "-//W3C//DTD SVG 20010904//EN"
 "http://www.w3.org/TR/2001/REC-SVG-20010904/DTD/svg10.dtd">
<svg version="1.0" xmlns="http://www.w3.org/2000/svg"
 width="1847.000000pt" height="2175.000000pt" viewBox="0 0 1847.000000 2175.000000"
 preserveAspectRatio="xMidYMid meet">

<g transform="translate(0.000000,2175.000000) scale(0.100000,-0.100000)"
fill="#000000" stroke="none">
<path d="M9930 21730 c-10 -7 -1 -8 31 -4 94 13 248 -53 362 -153 129 -114
452 -501 542 -650 142 -234 273 -500 309 -628 29 -103 68 -311 88 -465 9 -71
13 -233 13 -500 0 -356 -2 -412 -23 -570 -13 -96 -32 -245 -43 -330 -11 -85
-28 -196 -39 -245 -36 -177 -141 -544 -221 -775 -44 -129 -113 -334 -154 -455
-113 -344 -216 -623 -304 -832 -45 -105 -81 -196 -81 -201 0 -6 -56 -142 -124
-304 -213 -505 -271 -662 -367 -998 -27 -96 -94 -310 -148 -475 -250 -759
-329 -1078 -372 -1500 -31 -312 -44 -606 -44 -1040 1 -454 11 -597 91 -1220
63 -494 102 -741 128 -824 8 -25 31 -106 51 -178 69 -254 159 -428 279 -541
113 -105 228 -145 359 -123 40 7 91 23 115 37 45 27 115 113 151 187 35 72 71
251 71 352 0 94 -26 344 -36 354 -7 6 -5 -25 16 -248 26 -287 -72 -559 -230
-638 -49 -25 -66 -28 -150 -28 -87 0 -101 3 -160 32 -132 65 -227 176 -310
362 -54 120 -142 409 -171 566 -23 118 -73 466 -89 615 -6 58 -18 152 -26 210
-31 219 -66 593 -76 805 -13 291 3 901 31 1195 5 58 15 155 21 217 29 303 136
719 362 1398 54 165 119 370 143 455 88 311 161 510 355 970 61 145 136 330
167 410 31 80 73 183 93 230 45 102 163 430 298 825 55 160 126 369 160 465
89 257 195 670 221 865 72 522 76 568 74 990 0 311 -4 429 -17 530 -22 166
-59 349 -92 450 -31 96 -162 365 -238 490 -31 50 -63 103 -71 119 -23 39 -198
271 -292 386 -123 150 -289 311 -358 347 -120 63 -252 91 -295 63z"/>
<path d="M8289 21686 c-36 -12 -90 -36 -120 -52 -63 -34 -236 -203 -352 -344
-90 -110 -264 -340 -292 -387 -155 -255 -265 -473 -309 -608 -33 -101 -70
-284 -92 -450 -13 -101 -17 -219 -17 -530 -2 -395 -1 -403 31 -660 18 -143 40
-307 48 -365 29 -199 137 -606 235 -884 39 -111 110 -318 159 -461 117 -346
234 -670 280 -775 20 -47 62 -150 93 -230 31 -80 106 -265 167 -410 190 -451
270 -668 346 -940 19 -69 84 -273 144 -455 231 -703 341 -1124 370 -1420 12
-123 35 -458 50 -705 25 -449 -2 -1006 -74 -1520 -8 -58 -20 -152 -26 -210
-16 -149 -66 -497 -89 -615 -29 -157 -117 -446 -171 -566 -83 -186 -178 -297
-310 -362 -59 -29 -73 -32 -160 -32 -84 0 -101 3 -150 28 -158 79 -256 351
-230 638 21 223 23 254 16 248 -10 -9 -36 -259 -36 -352 0 -160 45 -326 118
-432 63 -91 118 -129 214 -145 134 -23 250 16 364 122 120 113 210 287 279
541 20 72 43 153 51 178 37 117 147 907 196 1409 40 415 30 1134 -22 1673 -41
421 -119 737 -371 1502 -54 165 -121 379 -148 475 -96 336 -154 493 -367 998
-68 162 -124 298 -124 304 0 5 -36 96 -81 201 -88 209 -191 488 -304 832 -41
121 -110 326 -154 455 -80 231 -185 598 -221 775 -11 49 -28 160 -39 245 -11
85 -30 234 -43 330 -21 158 -23 214 -23 570 0 267 4 429 13 500 20 154 59 362
88 465 36 128 167 394 309 628 90 149 413 536 542 650 114 100 268 166 362
153 32 -4 41 -3 31 4 -26 17 -113 10 -181 -14z"/>
<path d="M12835 19805 c-149 -26 -259 -69 -379 -149 -163 -108 -352 -338 -439
-531 -85 -190 -165 -505 -198 -780 -11 -88 -25 -196 -31 -240 -7 -51 -12 -318
-13 -730 -1 -404 -6 -689 -13 -754 -22 -194 -174 -575 -276 -688 -54 -59 -146
-111 -213 -119 -82 -9 -90 -13 -95 -38 -6 -29 21 -45 94 -53 101 -12 228 86
312 240 75 137 146 310 179 436 l30 116 -2 680 c-1 383 3 730 8 795 32 366 47
477 86 658 90 404 205 641 415 853 149 150 277 223 491 281 159 42 422 22 624
-49 319 -112 670 -345 945 -626 177 -181 265 -290 405 -502 235 -354 343 -581
535 -1115 126 -352 143 -409 204 -686 115 -523 135 -742 100 -1098 -27 -275
-126 -726 -224 -1016 -148 -441 -286 -718 -540 -1084 -87 -126 -191 -236 -277
-293 -42 -29 -61 -35 -102 -35 -72 1 -104 22 -162 110 -149 222 -207 266 -354
266 -71 0 -87 -4 -141 -33 -33 -17 -77 -46 -98 -62 -66 -55 -93 -141 -64 -204
18 -40 28 -29 11 13 -32 83 35 185 142 216 66 20 80 20 138 0 67 -23 117 -85
226 -278 107 -190 304 -601 367 -766 25 -63 56 -140 71 -170 14 -30 47 -118
73 -195 27 -77 80 -228 118 -335 117 -324 163 -546 242 -1156 40 -312 63 -731
57 -1059 -5 -343 -19 -432 -113 -723 -140 -430 -465 -947 -824 -1312 -220
-223 -469 -360 -654 -360 -61 0 -82 5 -141 34 -114 54 -177 130 -278 332 -130
259 -173 519 -149 894 15 220 30 320 72 485 64 248 145 445 235 570 60 85 155
169 237 210 150 75 228 50 241 -75 3 -26 4 -23 5 16 2 61 -21 97 -73 114 -73
24 -238 -52 -344 -158 -114 -114 -203 -286 -281 -544 -87 -288 -116 -523 -107
-874 4 -178 9 -225 30 -314 34 -143 69 -236 135 -360 93 -175 176 -270 277
-316 85 -39 208 -39 311 -1 186 70 395 222 563 408 260 288 549 724 680 1026
66 151 152 450 176 611 24 165 29 495 11 802 -9 151 -21 397 -26 545 -17 475
-51 838 -101 1060 -25 112 -52 273 -74 435 -13 98 -16 175 -13 355 4 220 6
238 42 405 108 499 173 696 396 1190 56 124 118 266 137 315 77 199 201 684
258 1003 24 136 46 423 44 573 -4 267 -72 645 -168 934 -219 660 -452 1183
-661 1486 -40 57 -102 149 -138 204 -142 219 -224 319 -425 524 -150 151 -364
322 -548 436 -338 210 -696 301 -984 250z"/>
<path d="M5195 19770 c-259 -39 -520 -165 -847 -406 -152 -113 -197 -153 -378
-340 -140 -145 -214 -238 -366 -465 -64 -96 -136 -202 -160 -235 -139 -200
-346 -643 -509 -1089 -178 -488 -221 -650 -270 -1000 -58 -418 -8 -878 161
-1490 78 -283 112 -379 231 -645 255 -570 308 -727 419 -1240 36 -167 38 -185
42 -405 3 -180 0 -257 -13 -355 -22 -162 -49 -322 -74 -436 -50 -226 -78 -527
-101 -1089 -5 -137 -17 -369 -26 -515 -18 -298 -13 -639 11 -802 24 -161 110
-460 176 -611 131 -302 420 -738 680 -1026 168 -186 377 -338 563 -408 103
-38 226 -38 311 1 101 46 184 141 277 316 66 124 101 217 135 360 49 202 42
664 -13 935 -73 360 -198 650 -345 797 -106 106 -271 182 -344 158 -52 -17
-75 -53 -73 -114 1 -39 2 -42 5 -16 13 125 91 150 241 75 214 -107 361 -350
472 -780 42 -165 57 -265 72 -485 24 -375 -19 -635 -149 -894 -101 -202 -164
-278 -278 -332 -59 -29 -80 -34 -141 -34 -185 0 -434 137 -654 360 -261 266
-489 588 -675 955 -104 205 -188 446 -232 662 -57 280 -38 985 42 1588 68 515
116 738 227 1045 38 107 91 258 118 335 26 77 59 165 73 195 15 30 46 107 71
170 62 163 260 575 368 766 108 193 159 255 225 278 58 20 72 20 138 0 107
-31 174 -133 142 -216 -17 -42 -7 -53 11 -13 29 63 2 149 -64 204 -21 16 -65
45 -98 62 -54 29 -70 33 -141 33 -147 0 -205 -44 -354 -266 -58 -88 -90 -109
-162 -110 -41 0 -60 6 -102 35 -88 58 -188 165 -280 297 -208 299 -313 494
-452 845 -190 480 -325 1116 -325 1528 0 219 29 427 116 821 61 277 78 334
204 686 192 534 300 761 535 1115 140 212 228 321 405 502 275 281 626 514
945 626 202 71 465 91 624 49 214 -58 342 -131 491 -281 210 -212 325 -449
415 -853 39 -181 54 -292 86 -658 5 -65 9 -412 8 -795 l-2 -680 31 -118 c35
-130 103 -297 178 -434 84 -154 211 -252 312 -240 73 8 100 24 94 53 -5 25
-13 29 -95 38 -67 8 -159 60 -213 119 -102 113 -254 494 -276 688 -7 65 -12
350 -13 754 -1 412 -6 679 -13 730 -6 44 -20 152 -31 240 -33 275 -113 590
-198 780 -114 254 -359 513 -577 609 -186 82 -372 102 -611 66z"/>
<path d="M12890 19589 c-174 -15 -348 -104 -476 -242 -89 -96 -136 -168 -199
-301 -108 -227 -140 -391 -151 -771 -7 -239 10 -475 51 -680 28 -146 189 -646
284 -885 25 -61 132 -293 217 -468 30 -61 95 -197 144 -301 110 -234 191 -396
240 -481 108 -188 235 -429 265 -503 19 -46 49 -151 67 -233 32 -147 33 -152
33 -409 0 -222 -3 -271 -19 -335 -23 -90 -61 -169 -128 -267 -62 -90 -114
-138 -185 -170 -51 -24 -65 -25 -201 -24 -163 2 -213 12 -360 69 -114 45 -223
124 -310 224 -74 86 -104 145 -133 262 -20 77 -21 91 -9 146 7 34 24 78 37 97
13 19 18 33 11 31 -23 -7 -60 -95 -65 -156 -6 -66 20 -178 64 -270 32 -67 171
-216 256 -274 188 -128 509 -206 690 -168 110 22 230 121 320 262 94 149 119
218 159 448 27 157 29 188 23 305 -8 153 -49 372 -99 530 -46 145 -168 487
-195 548 -34 78 -50 143 -72 297 -33 239 -38 307 -27 424 19 214 92 430 199
587 135 200 291 293 494 293 84 1 94 -2 150 -33 117 -66 288 -224 399 -371 92
-121 216 -403 216 -491 0 -16 7 -40 14 -52 8 -12 27 -78 41 -147 22 -101 28
-161 32 -310 5 -205 -8 -310 -61 -485 -55 -184 -220 -408 -351 -478 -16 -9
-23 -16 -15 -17 30 0 121 71 184 145 70 83 152 219 184 305 44 122 82 347 82
488 0 201 -53 537 -115 726 -55 172 -116 289 -225 434 -103 139 -207 240 -313
306 -121 76 -164 89 -287 88 -129 -1 -158 -11 -292 -97 -84 -54 -141 -104
-309 -272 -207 -205 -207 -206 -257 -211 -69 -6 -128 25 -218 116 -192 192
-321 392 -412 637 -100 266 -159 709 -150 1107 5 192 5 194 42 297 153 429
396 668 723 712 85 11 280 7 333 -7 17 -5 22 -4 15 4 -5 6 -54 15 -107 21
-105 12 -103 12 -228 0z"/>
<path d="M5265 19558 c-44 -5 -84 -14 -90 -20 -7 -8 -3 -9 15 -4 14 4 75 9
135 13 318 17 546 -89 733 -342 58 -78 141 -245 188 -376 37 -103 37 -105 42
-297 6 -239 -10 -464 -49 -692 -40 -234 -52 -286 -101 -415 -91 -245 -220
-445 -412 -637 -90 -91 -149 -122 -218 -116 -50 5 -50 6 -257 211 -168 168
-225 218 -309 272 -134 86 -163 96 -292 97 -123 1 -166 -12 -287 -88 -106 -66
-210 -167 -313 -306 -192 -256 -278 -508 -325 -945 -18 -167 -19 -257 -5 -373
13 -106 46 -258 72 -330 32 -86 114 -222 184 -305 63 -74 154 -145 184 -145 8
1 2 8 -15 17 -87 47 -193 165 -277 308 -121 208 -170 573 -118 882 41 239 135
532 216 670 97 166 319 390 469 474 56 31 66 34 150 33 203 0 359 -93 494
-293 107 -157 180 -373 199 -587 11 -117 6 -185 -27 -424 -22 -154 -38 -219
-72 -297 -27 -60 -148 -402 -195 -548 -49 -153 -91 -377 -99 -525 -6 -109 -4
-146 19 -285 42 -251 65 -319 163 -473 91 -142 209 -239 321 -263 180 -37 501
41 689 169 85 58 224 207 256 274 44 92 70 204 64 270 -5 61 -42 149 -65 156
-7 2 -2 -12 11 -31 13 -19 30 -63 37 -97 12 -55 11 -69 -9 -146 -29 -117 -59
-176 -133 -262 -87 -100 -196 -179 -310 -224 -147 -57 -197 -67 -360 -69 -136
-1 -150 0 -201 24 -71 32 -123 80 -185 170 -67 98 -105 177 -128 267 -16 64
-19 113 -19 335 0 257 1 262 33 409 18 82 48 187 67 233 30 74 157 315 265
503 49 85 130 247 240 481 49 104 114 240 144 301 85 175 192 407 217 468 95
239 256 739 284 885 41 205 58 441 51 680 -11 375 -43 543 -146 761 -160 341
-393 527 -695 554 -115 11 -122 11 -230 -2z"/>
<path d="M10631 13401 c-42 -65 -93 -225 -112 -351 -7 -48 -10 -152 -6 -285 4
-183 8 -223 31 -309 31 -120 134 -333 206 -429 153 -200 705 -606 1110 -815
473 -244 508 -265 644 -390 156 -142 230 -257 302 -467 34 -99 37 -120 37
-210 0 -72 -8 -133 -27 -218 -36 -154 -28 -176 10 -27 24 97 28 135 28 240 0
120 -2 129 -42 243 -23 65 -57 148 -77 183 -81 144 -237 304 -399 408 -44 29
-202 115 -351 191 -279 143 -439 238 -673 402 -240 169 -487 385 -568 499 -60
84 -159 292 -184 389 -30 115 -47 395 -32 534 20 187 76 367 139 441 14 17 20
30 14 30 -6 0 -29 -27 -50 -59z"/>
<path d="M7733 13400 c104 -123 160 -415 139 -727 -14 -207 -34 -289 -113
-452 -73 -152 -123 -224 -225 -321 -295 -281 -661 -531 -1130 -771 -153 -78
-312 -165 -353 -192 -158 -106 -308 -261 -386 -401 -20 -35 -54 -118 -77 -183
-40 -114 -42 -123 -42 -243 0 -105 4 -143 28 -240 38 -149 46 -127 10 27 -20
87 -27 145 -27 218 0 89 4 112 37 210 72 210 146 325 302 467 136 125 171 146
644 390 405 209 957 615 1110 815 71 94 175 308 207 429 25 94 27 111 27 354
1 247 0 258 -26 356 -15 56 -36 124 -46 151 -22 57 -78 143 -93 143 -6 0 0
-13 14 -30z"/>
<path d="M16272 10648 c-104 -60 -283 -238 -406 -401 -219 -293 -271 -381
-376 -640 -62 -153 -92 -270 -126 -482 -39 -248 -112 -567 -159 -702 -102
-290 -230 -535 -370 -710 -98 -124 -375 -404 -605 -613 -279 -253 -718 -701
-815 -832 -213 -284 -326 -526 -575 -1228 -146 -410 -108 -294 -304 -945 -25
-82 -86 -271 -135 -420 -64 -194 -116 -380 -185 -660 -109 -445 -128 -512
-163 -575 -13 -25 -42 -85 -63 -135 -94 -218 -399 -711 -744 -1200 -143 -203
-378 -468 -551 -621 -44 -39 -105 -93 -135 -120 -72 -64 -260 -190 -379 -252
-77 -41 -90 -51 -76 -59 67 -38 376 133 755 417 390 292 547 429 968 849 178
177 356 349 395 383 40 33 173 152 297 263 395 356 447 400 633 542 231 177
697 508 892 634 166 107 472 287 580 342 116 59 379 159 573 218 113 34 370
80 632 112 166 20 230 22 610 22 463 -1 486 -2 959 -76 260 -41 704 -140 845
-189 33 -11 61 -18 63 -16 15 14 -453 138 -697 185 -357 68 -722 108 -1060
116 -512 13 -1092 -54 -1425 -164 -189 -62 -408 -147 -505 -196 -156 -78 -521
-296 -685 -408 -214 -146 -639 -452 -797 -574 -187 -145 -252 -200 -578 -493
-96 -86 -231 -206 -300 -265 -69 -60 -278 -260 -465 -445 -420 -414 -548 -526
-925 -807 -285 -212 -462 -325 -605 -388 -82 -36 -63 -22 97 74 75 45 176 112
225 150 101 78 323 276 338 302 5 9 69 84 140 165 168 192 223 264 450 584
228 321 327 488 535 901 281 559 416 768 686 1064 203 222 310 316 564 493
373 259 639 395 1053 537 76 26 136 50 133 52 -9 9 -342 -109 -497 -176 -210
-91 -361 -174 -582 -322 -341 -228 -516 -366 -697 -549 -190 -192 -205 -209
-330 -390 -51 -74 -96 -139 -100 -143 -10 -11 -6 10 46 258 56 262 100 417
209 726 48 134 122 359 165 499 110 356 290 867 396 1120 120 288 307 613 479
835 35 45 265 277 521 526 430 418 503 494 714 739 164 191 326 476 391 689
11 39 25 74 30 77 5 3 9 14 9 24 0 11 11 52 24 92 31 90 72 291 86 418 43 391
70 528 141 710 101 259 169 377 385 666 118 159 292 333 402 403 28 18 52 35
52 37 0 6 -2 5 -58 -28z"/>
<path d="M2070 10647 c0 -3 24 -20 53 -38 28 -19 105 -83 170 -143 120 -110
253 -276 407 -505 113 -169 227 -435 278 -646 28 -118 38 -187 72 -485 19
-165 58 -335 124 -533 74 -222 102 -288 187 -435 113 -197 136 -228 397 -526
48 -54 293 -300 546 -545 256 -249 486 -481 521 -526 172 -222 359 -547 479
-835 106 -253 285 -759 396 -1120 43 -140 117 -365 165 -499 109 -309 153
-464 209 -726 52 -248 56 -269 46 -258 -4 4 -49 69 -100 143 -231 334 -485
570 -970 901 -253 173 -419 266 -662 370 -141 60 -466 174 -474 166 -3 -2 57
-26 133 -52 304 -104 589 -236 803 -371 155 -97 382 -257 490 -344 107 -87
327 -311 450 -457 138 -166 304 -425 457 -713 28 -52 70 -131 94 -175 24 -44
69 -133 100 -197 70 -141 158 -296 254 -444 131 -200 585 -796 770 -1007 66
-76 126 -149 133 -163 7 -13 17 -24 22 -24 4 0 39 -31 76 -68 59 -59 115 -104
254 -205 55 -39 -12 1 -125 76 -135 90 -419 299 -570 421 -204 164 -318 268
-650 596 -187 185 -396 385 -465 444 -69 60 -204 180 -300 266 -321 289 -390
348 -578 493 -158 122 -583 428 -797 574 -164 112 -529 330 -685 408 -97 49
-316 134 -505 196 -333 110 -913 177 -1425 164 -338 -8 -703 -48 -1060 -116
-244 -47 -712 -171 -697 -185 2 -2 30 5 63 16 64 23 447 116 609 149 115 23
355 60 600 93 154 20 211 22 595 23 380 0 444 -2 610 -22 463 -57 649 -103
1035 -255 260 -103 664 -347 1180 -713 154 -109 362 -261 462 -338 186 -142
238 -186 633 -542 124 -111 257 -229 296 -263 39 -33 217 -205 395 -383 422
-420 579 -557 969 -849 309 -231 576 -391 701 -419 72 -16 65 -1 -16 34 -193
84 -354 204 -521 387 -154 168 -168 185 -324 392 -72 94 -173 227 -226 296
-176 230 -205 270 -328 458 -68 103 -158 257 -201 342 -43 85 -83 162 -90 170
-7 8 -16 25 -20 38 -4 13 -25 55 -47 94 -23 38 -76 145 -118 237 -76 163 -80
173 -170 536 -62 250 -121 457 -181 640 -50 149 -110 338 -135 420 -140 465
-167 554 -179 590 -55 167 -274 770 -325 895 -114 283 -251 530 -398 719 -89
115 -549 580 -792 801 -230 209 -507 489 -605 613 -140 175 -268 420 -370 710
-47 135 -120 454 -159 702 -34 212 -64 329 -126 482 -105 259 -157 347 -376
640 -88 117 -142 178 -238 265 -103 93 -226 183 -226 165z"/>
<path d="M11843 9983 c-44 -6 -42 -23 2 -23 39 0 101 -28 126 -56 9 -11 29
-44 45 -74 55 -107 42 -317 -29 -455 -28 -56 -133 -157 -192 -185 -67 -33
-187 -40 -251 -15 -55 21 -97 74 -114 144 -15 63 -2 138 44 244 l35 80 -30
-29 c-66 -64 -220 -335 -282 -499 -42 -110 -118 -363 -127 -425 -4 -25 -19
-97 -34 -160 -15 -63 -37 -173 -51 -245 -13 -71 -38 -197 -54 -280 -39 -194
-92 -517 -86 -523 8 -9 54 39 92 97 25 37 43 84 60 149 29 117 57 181 113 250
51 64 88 86 255 152 369 146 628 318 805 535 187 229 304 480 326 702 8 80
-10 255 -35 335 -40 125 -156 215 -336 262 -63 16 -227 27 -282 19z"/>
<path d="M6355 9950 c-33 -5 -89 -18 -124 -30 -167 -56 -255 -131 -292 -248
-25 -80 -43 -255 -35 -335 22 -222 139 -473 326 -702 177 -217 436 -389 805
-535 167 -66 204 -88 255 -152 56 -69 84 -133 113 -250 17 -65 35 -112 60
-149 38 -58 84 -106 92 -97 6 6 -47 329 -86 523 -16 83 -41 209 -54 280 -14
72 -36 182 -51 245 -15 63 -30 135 -34 160 -9 62 -85 315 -127 425 -62 164
-216 435 -282 499 l-30 29 35 -80 c46 -106 59 -181 44 -244 -17 -70 -59 -123
-114 -144 -64 -25 -184 -18 -251 15 -59 28 -164 129 -192 185 -71 138 -84 348
-29 455 16 30 36 63 45 74 25 28 87 56 126 56 51 0 43 16 -11 24 -56 7 -108 6
-189 -4z"/>
<path d="M10551 9674 c0 -11 3 -14 6 -6 3 7 2 16 -1 19 -3 4 -6 -2 -5 -13z"/>
<path d="M7841 9644 c0 -11 3 -14 6 -6 3 7 2 16 -1 19 -3 4 -6 -2 -5 -13z"/>
<path d="M11720 7766 c-209 -73 -452 -256 -619 -466 -138 -172 -245 -356 -337
-580 -113 -276 -169 -480 -209 -755 -43 -299 -50 -407 -49 -720 1 -690 40
-947 229 -1535 62 -191 170 -621 196 -775 15 -91 21 -169 20 -261 -1 -125 -29
-379 -51 -454 -15 -52 -11 -61 6 -15 27 72 55 267 61 420 5 126 2 172 -16 290
-27 168 -133 592 -201 800 -143 443 -198 693 -215 990 -34 597 -24 896 45
1324 83 513 319 1037 610 1355 59 63 209 188 305 253 106 71 253 134 340 146
24 3 22 4 -10 5 -22 0 -69 -10 -105 -22z"/>
<path d="M6565 7753 c87 -12 234 -75 340 -146 96 -65 246 -190 305 -253 291
-318 527 -842 610 -1355 69 -428 79 -727 45 -1324 -17 -297 -72 -547 -215
-990 -68 -208 -174 -632 -201 -800 -18 -118 -21 -164 -16 -290 6 -153 34 -348
61 -420 17 -46 21 -37 6 15 -22 75 -50 329 -51 454 -1 92 5 170 20 263 28 168
148 627 246 938 140 447 178 733 179 1370 1 313 -6 421 -49 720 -80 552 -311
1085 -618 1422 -100 109 -303 265 -427 328 -80 41 -188 75 -229 74 -34 -2 -34
-2 -6 -6z"/>
<path d="M10881 2153 c-1 -6 -4 -20 -7 -30 -5 -17 -5 -17 6 0 6 10 9 23 6 30
-3 9 -5 9 -5 0z"/>
<path d="M7511 2120 c0 -8 4 -22 9 -30 12 -18 12 -2 0 25 -6 13 -9 15 -9 5z"/>
<path d="M10064 1959 c-6 -8 -15 -24 -19 -37 -12 -39 -150 -215 -217 -277 -96
-89 -217 -164 -319 -196 -77 -25 -104 -29 -207 -29 -167 0 -280 25 -412 92
-101 50 -113 60 -289 233 -130 128 -182 173 -178 155 3 -14 24 -110 46 -215
49 -229 72 -302 115 -370 41 -63 80 -95 117 -95 29 0 46 14 29 25 -5 3 -10 27
-10 53 0 86 60 144 113 109 30 -19 69 -94 108 -203 63 -179 148 -296 235 -322
50 -15 185 -16 235 -2 76 21 162 137 240 324 23 56 58 122 76 149 31 42 39 47
74 47 53 0 75 -31 60 -88 -6 -22 -18 -45 -26 -52 -8 -7 -15 -19 -15 -27 0 -23
55 -9 93 23 74 62 127 166 152 299 28 150 27 440 -1 404z"/>
</g>
</svg>
