<?xml version="1.0" standalone="no"?>
<!DOCTYPE svg PUBLIC "-//W3C//DTD SVG 20010904//EN"
 "http://www.w3.org/TR/2001/REC-SVG-20010904/DTD/svg10.dtd">
<svg version="1.0" xmlns="http://www.w3.org/2000/svg"
 width="2900.000000pt" height="2900.000000pt" viewBox="0 0 2900.000000 2900.000000"
 preserveAspectRatio="xMidYMid meet">
<metadata>
Created by potrace 1.14, written by Peter Selinger 2001-2017
</metadata>
<g transform="translate(0.000000,2900.000000) scale(0.100000,-0.100000)"
fill="#000000" stroke="none">
<path d="M15445 28981 c-23 -11 -17 -12 67 -13 103 -1 252 -61 378 -153 122
-89 347 -337 625 -689 119 -150 231 -331 370 -599 79 -152 178 -367 168 -367
-3 0 -1 -6 4 -12 16 -20 64 -194 78 -278 3 -19 10 -55 15 -80 8 -38 34 -188
55 -320 24 -156 26 -1236 1 -1355 -2 -11 -7 -51 -11 -88 -3 -37 -8 -76 -10
-85 -1 -9 -6 -44 -9 -77 -4 -33 -9 -71 -11 -85 -2 -14 -7 -43 -9 -65 -7 -50
-27 -203 -31 -230 -2 -11 -6 -42 -10 -70 -23 -176 -140 -631 -254 -985 -54
-170 -357 -1064 -445 -1315 -65 -187 -179 -486 -221 -580 -14 -33 -107 -264
-145 -360 -13 -33 -77 -188 -142 -345 -289 -691 -356 -874 -503 -1375 -53
-182 -110 -360 -252 -800 -59 -182 -76 -237 -128 -405 -47 -152 -127 -435
-139 -490 -2 -8 -6 -22 -9 -30 -16 -41 -93 -409 -102 -490 -3 -30 -8 -62 -10
-70 -6 -22 -13 -68 -20 -126 -3 -28 -7 -59 -9 -70 -2 -10 -7 -50 -10 -89 -4
-38 -9 -88 -11 -110 -4 -37 -9 -95 -21 -265 -21 -287 -38 -1114 -24 -1105 4 2
8 98 9 212 2 271 14 654 26 823 14 196 18 247 31 375 2 28 7 75 10 105 2 30 7
71 9 90 3 19 7 55 10 80 3 25 15 97 26 160 22 128 23 132 39 210 7 30 16 74
21 98 5 24 11 47 13 51 3 4 7 18 10 32 4 23 13 56 69 264 13 50 43 153 67 230
23 77 43 145 44 150 1 6 9 33 18 60 198 608 289 894 357 1120 143 479 216 677
471 1285 45 107 121 294 170 415 48 121 111 276 140 345 49 119 187 484 229
607 11 32 28 78 37 103 21 59 160 460 234 675 32 94 77 224 100 290 80 230
169 519 204 665 3 8 18 69 35 135 32 128 66 278 76 335 9 56 14 83 20 110 3
14 8 52 11 85 3 33 8 62 9 65 2 3 6 33 10 65 3 33 8 71 10 85 3 14 7 48 11 75
3 28 7 61 9 74 3 14 7 54 10 90 4 36 8 73 10 81 27 104 28 1413 0 1460 -1 3
-6 30 -9 60 -5 44 -32 194 -60 335 -34 171 -84 298 -231 590 -170 334 -301
532 -594 895 -162 201 -361 402 -471 476 -118 79 -351 144 -415 115z"/>
<path d="M13375 28943 c-137 -22 -259 -71 -350 -140 -90 -68 -327 -312 -436
-448 -305 -380 -446 -596 -630 -960 -126 -249 -177 -399 -223 -655 -3 -14 -9
-50 -15 -80 -6 -30 -13 -75 -16 -100 -3 -25 -8 -52 -10 -60 -5 -17 -14 -117
-21 -230 -2 -41 -5 -284 -6 -540 -1 -407 2 -519 18 -655 2 -16 6 -57 9 -91 3
-33 7 -69 9 -80 2 -10 7 -48 11 -84 4 -36 8 -67 10 -70 2 -3 6 -34 10 -70 3
-36 11 -96 16 -135 6 -38 12 -88 15 -110 22 -168 81 -430 166 -735 73 -261
480 -1460 652 -1917 36 -98 220 -556 255 -638 12 -27 214 -521 324 -790 147
-361 210 -541 326 -932 45 -150 86 -285 92 -300 6 -15 30 -89 54 -163 23 -74
66 -207 94 -295 29 -88 77 -241 108 -340 30 -99 68 -224 84 -277 17 -53 32
-105 34 -115 2 -10 16 -61 31 -113 14 -52 27 -102 29 -110 2 -8 19 -78 38
-155 35 -138 56 -234 72 -330 15 -84 24 -145 30 -190 3 -27 8 -63 10 -80 2
-16 7 -70 10 -120 3 -49 8 -110 10 -135 5 -45 9 -109 20 -295 3 -55 8 -118 10
-140 5 -63 18 -276 19 -317 0 -21 3 -38 7 -38 4 0 6 28 4 63 -2 34 -7 130 -10
212 -3 83 -8 173 -10 201 -2 28 -7 94 -10 145 -3 52 -8 119 -11 149 -8 77 -11
115 -18 195 -7 68 -13 124 -21 175 -2 14 -7 45 -10 70 -35 255 -165 796 -255
1060 -4 14 -22 72 -40 130 -18 58 -70 222 -117 365 -47 143 -89 274 -93 290
-4 17 -29 95 -54 175 -26 80 -72 231 -102 335 -58 200 -128 416 -187 575 -39
106 -132 344 -147 375 -9 19 -150 357 -227 545 -20 47 -55 135 -78 195 -62
159 -112 282 -140 345 -73 165 -208 538 -412 1140 -222 655 -244 723 -314 960
-33 113 -64 219 -69 235 -18 61 -69 273 -89 370 -18 90 -23 120 -36 212 -2 15
-6 46 -10 68 -8 55 -14 101 -21 160 -3 28 -9 75 -14 105 -5 30 -12 82 -15 115
-4 33 -11 87 -15 120 -21 137 -25 243 -25 715 0 439 6 669 19 737 3 11 8 43
12 70 3 26 9 57 11 68 2 11 6 34 9 50 2 17 11 64 19 105 8 41 17 91 20 110 12
71 58 227 91 307 60 147 204 431 285 566 16 26 29 49 29 51 0 6 102 170 109
176 3 3 45 57 93 120 83 111 269 338 352 430 182 201 287 291 414 355 120 60
152 69 259 69 40 1 68 5 64 9 -10 10 -73 15 -106 10z"/>
<path d="M19335 26409 c-121 -18 -197 -37 -295 -75 -74 -29 -213 -103 -218
-115 -2 -5 -8 -9 -14 -9 -17 0 -147 -108 -222 -185 -170 -175 -315 -386 -389
-565 -59 -145 -152 -453 -172 -570 -3 -14 -10 -47 -16 -75 -12 -60 -16 -79
-23 -125 -3 -19 -7 -44 -10 -55 -4 -23 -23 -149 -31 -212 -3 -24 -7 -60 -10
-80 -2 -21 -7 -58 -10 -83 -3 -25 -8 -63 -11 -85 -11 -74 -13 -158 -18 -730
-8 -780 -15 -1232 -21 -1280 -29 -233 -195 -675 -324 -860 -83 -120 -200 -194
-347 -220 -93 -16 -116 -30 -107 -66 9 -32 59 -51 137 -52 58 -1 82 4 128 27
58 27 163 120 211 187 96 130 242 462 309 702 l31 112 2 950 c2 523 6 986 9
1030 4 44 8 96 10 115 5 50 17 178 21 225 8 94 22 208 35 285 5 30 12 73 16
95 3 22 14 78 24 125 10 47 21 96 23 110 3 14 25 97 51 185 64 224 118 355
226 553 43 77 167 234 257 325 144 145 252 224 400 291 307 138 566 154 983
61 46 -10 190 -64 289 -108 208 -92 439 -228 613 -359 9 -7 26 -20 39 -28 154
-105 468 -403 650 -616 102 -120 104 -123 165 -204 33 -45 256 -381 301 -455
95 -155 194 -345 293 -560 86 -186 233 -574 390 -1030 30 -86 106 -353 115
-405 9 -47 13 -65 23 -105 6 -22 13 -51 16 -65 2 -14 9 -45 15 -70 5 -25 12
-56 14 -70 3 -14 16 -81 30 -150 31 -153 36 -181 56 -315 18 -121 20 -138 28
-225 14 -156 7 -542 -12 -661 -2 -13 -6 -49 -10 -79 -4 -30 -8 -64 -10 -75 -1
-11 -5 -38 -9 -60 -3 -22 -19 -112 -36 -200 -17 -88 -33 -171 -36 -185 -2 -14
-7 -36 -10 -50 -3 -14 -8 -34 -10 -45 -3 -15 -74 -296 -88 -350 -21 -79 -35
-125 -83 -270 -179 -547 -373 -948 -670 -1383 -154 -227 -296 -386 -418 -466
-67 -45 -95 -54 -157 -50 -76 5 -132 42 -186 124 -211 317 -296 380 -512 374
-84 -2 -136 -21 -235 -87 -102 -67 -155 -145 -158 -230 -1 -44 19 -107 34
-107 11 0 11 0 -4 46 -58 168 168 349 359 289 97 -30 166 -112 311 -368 65
-116 273 -529 336 -667 14 -30 36 -80 50 -110 33 -73 117 -270 117 -275 0 -3
27 -66 59 -142 106 -247 355 -966 412 -1188 30 -116 34 -131 44 -185 10 -52
14 -72 19 -88 3 -9 7 -33 10 -52 3 -19 7 -44 10 -55 3 -18 6 -37 22 -140 10
-61 15 -90 19 -105 2 -8 6 -42 10 -75 3 -33 8 -67 10 -75 2 -8 7 -36 10 -62 3
-26 10 -79 15 -118 5 -39 12 -92 15 -118 3 -26 8 -58 10 -71 2 -14 7 -54 10
-90 4 -36 8 -77 10 -91 2 -14 7 -61 10 -105 3 -44 8 -93 10 -110 2 -16 7 -82
11 -145 3 -63 8 -140 10 -170 2 -30 6 -237 8 -460 3 -422 -3 -575 -29 -735 -3
-16 -7 -41 -9 -55 -15 -94 -130 -474 -171 -565 -7 -16 -25 -58 -39 -92 -170
-406 -486 -905 -809 -1278 -241 -277 -435 -444 -651 -560 -169 -90 -296 -126
-438 -121 -68 2 -88 8 -162 45 -152 75 -239 182 -372 456 -103 213 -147 353
-180 575 -28 191 -23 657 11 875 2 17 7 53 10 80 4 28 8 57 10 65 2 8 7 30 10
48 3 19 23 102 45 185 141 550 325 862 603 1021 115 65 231 84 281 45 30 -24
56 -69 56 -99 0 -11 4 -20 9 -20 13 0 2 70 -17 102 -94 160 -459 -10 -659
-306 -50 -75 -126 -225 -163 -321 -13 -33 -29 -73 -35 -90 -22 -52 -53 -155
-90 -299 -42 -158 -41 -152 -60 -266 -20 -120 -23 -145 -31 -235 -3 -44 -8
-93 -10 -110 -5 -41 -4 -471 1 -575 5 -102 17 -195 31 -242 3 -9 7 -25 9 -37
46 -239 224 -594 381 -761 110 -116 223 -162 384 -156 107 4 129 8 203 37 239
92 512 291 741 541 86 94 299 355 317 390 5 9 15 23 21 30 16 17 38 48 144
203 177 260 368 599 443 789 96 240 200 623 225 831 28 225 25 714 -8 1290 -3
61 -8 175 -11 255 -3 80 -8 181 -10 225 -2 44 -7 143 -10 220 -3 77 -8 163
-10 190 -2 28 -7 95 -10 150 -3 55 -8 111 -10 125 -2 14 -7 66 -11 115 -3 50
-8 97 -9 105 -2 8 -6 44 -10 80 -4 36 -9 72 -10 81 -2 9 -6 40 -10 70 -4 30
-22 133 -41 229 -19 96 -37 186 -39 200 -3 14 -7 36 -10 50 -2 13 -7 42 -10
65 -3 22 -8 51 -10 65 -3 14 -7 39 -9 55 -7 50 -18 119 -22 139 -25 133 -23
686 2 845 37 234 151 702 229 941 44 136 138 387 170 455 7 17 18 41 23 55 12
32 196 449 227 516 90 191 161 397 240 694 24 91 49 185 56 210 7 25 13 50 15
55 52 229 79 348 95 425 19 92 23 112 34 183 3 17 8 39 10 47 2 8 7 42 10 75
3 33 8 78 10 100 37 302 37 636 0 915 -13 98 -23 159 -60 365 -21 112 -97 392
-155 565 -223 671 -481 1281 -708 1676 -69 119 -414 639 -519 782 -169 229
-519 581 -763 767 -36 27 -67 52 -70 55 -15 16 -289 200 -355 238 -85 49 -305
152 -397 186 -105 39 -294 90 -373 100 -27 4 -65 9 -84 12 -77 12 -252 9 -356
-7z"/>
<path d="M9388 26385 c-2 -1 -50 -5 -108 -8 -92 -6 -212 -23 -290 -42 -14 -3
-36 -8 -48 -11 -38 -8 -213 -70 -272 -96 -117 -53 -158 -74 -260 -132 -136
-77 -471 -303 -500 -336 -3 -3 -34 -28 -70 -55 -88 -66 -423 -404 -541 -545
-104 -125 -158 -200 -347 -480 -69 -102 -144 -212 -167 -245 -133 -193 -310
-542 -479 -945 -81 -193 -112 -267 -137 -335 -12 -33 -32 -87 -44 -120 -191
-512 -296 -864 -345 -1155 -6 -36 -13 -76 -16 -90 -44 -250 -60 -606 -41 -875
8 -105 9 -112 27 -265 16 -129 17 -133 34 -230 9 -47 18 -98 21 -115 3 -16 10
-50 15 -75 6 -25 12 -54 14 -65 37 -189 160 -648 231 -860 47 -143 116 -315
188 -475 206 -458 356 -835 414 -1040 113 -403 200 -810 208 -972 6 -116 6
-507 1 -570 -5 -56 -16 -142 -22 -183 -6 -37 -11 -68 -19 -125 -3 -25 -15 -92
-25 -150 -11 -58 -22 -121 -25 -140 -3 -19 -12 -64 -20 -100 -17 -77 -42 -217
-50 -280 -17 -133 -28 -244 -40 -390 -3 -41 -8 -95 -10 -120 -9 -106 -24 -402
-40 -785 -5 -105 -12 -254 -20 -395 -17 -295 -20 -392 -20 -660 0 -355 10
-518 40 -660 3 -14 7 -37 10 -52 3 -15 9 -38 15 -52 5 -15 8 -26 5 -26 -2 0 1
-15 6 -32 5 -18 19 -67 30 -108 112 -417 270 -747 577 -1200 400 -590 730
-924 1101 -1112 135 -68 207 -89 327 -94 82 -3 114 0 167 16 169 52 302 199
451 495 103 207 159 395 183 620 16 146 8 708 -12 825 -3 14 -7 48 -10 75 -4
28 -18 104 -31 170 -31 149 -32 153 -39 175 -3 10 -8 27 -10 37 -45 205 -177
518 -290 688 -98 147 -245 269 -398 329 -116 46 -211 36 -251 -27 -17 -25 -34
-141 -17 -117 5 8 8 17 5 21 -10 17 36 99 65 113 64 34 182 7 306 -68 65 -39
65 -40 144 -116 144 -139 261 -351 364 -660 25 -73 73 -249 83 -300 3 -14 9
-41 14 -60 15 -57 40 -209 46 -279 3 -36 7 -79 9 -96 8 -63 19 -274 19 -385 0
-398 -66 -683 -234 -1005 -123 -235 -192 -312 -351 -392 -65 -32 -84 -37 -154
-39 -174 -6 -342 55 -565 201 -222 146 -400 325 -714 716 -53 65 -231 326
-291 427 -142 235 -249 437 -309 580 -62 148 -76 183 -109 282 -69 202 -125
428 -141 570 -11 93 -20 332 -20 525 0 202 11 569 19 615 2 14 6 75 10 135 4
61 8 126 10 145 2 19 6 72 10 117 3 44 7 89 9 100 3 15 12 96 21 183 1 14 6
50 10 80 4 30 9 66 10 80 3 27 6 51 35 245 10 72 22 153 26 180 3 28 8 52 9
55 2 3 6 26 10 50 40 277 120 571 260 965 31 88 86 243 122 345 36 102 74 205
85 229 11 24 44 105 75 180 83 204 145 344 257 576 309 636 437 838 562 884
66 25 103 26 174 5 92 -27 165 -86 196 -159 13 -31 12 -110 -1 -155 -7 -23 -6
-24 9 -9 10 9 19 38 23 71 5 46 1 65 -20 109 -38 83 -88 127 -212 192 -70 36
-107 44 -203 41 -179 -4 -265 -71 -456 -355 -75 -112 -132 -148 -227 -143 -66
3 -135 45 -245 147 -239 223 -567 742 -767 1212 -151 356 -262 691 -352 1060
-30 123 -90 416 -100 485 -3 25 -8 52 -10 60 -2 8 -7 35 -9 60 -3 25 -10 81
-16 125 -23 182 -29 272 -30 450 0 139 5 246 15 320 2 17 7 62 11 100 3 39 8
73 10 76 1 3 6 28 9 55 4 27 8 56 10 64 2 8 7 31 10 50 12 76 49 261 75 380
56 251 71 314 91 384 11 39 25 87 30 106 35 139 282 814 393 1078 200 474 523
998 835 1356 77 88 290 304 361 366 135 117 176 151 292 237 200 149 466 302
668 383 30 12 69 28 85 35 93 40 307 88 449 102 207 19 360 3 537 -57 268 -89
446 -215 651 -460 139 -167 242 -354 326 -592 38 -107 97 -315 108 -378 3 -14
9 -41 14 -60 5 -19 11 -46 13 -60 3 -14 12 -63 21 -110 8 -47 18 -110 21 -140
3 -30 7 -66 10 -80 2 -14 7 -54 10 -90 4 -36 8 -76 10 -90 2 -14 6 -61 10
-105 3 -44 8 -96 10 -116 13 -108 16 -387 16 -1174 l0 -870 31 -115 c30 -114
67 -227 93 -285 7 -16 25 -59 40 -95 47 -112 135 -279 181 -340 61 -81 143
-153 211 -186 67 -33 163 -38 226 -11 33 14 38 20 35 44 -4 33 -32 49 -103 57
-145 15 -294 121 -382 271 -122 209 -257 575 -288 783 -10 73 -14 255 -20 997
-7 885 -9 948 -30 1100 -2 17 -11 86 -20 155 -29 222 -36 268 -71 437 -22 107
-69 289 -109 423 -121 407 -398 780 -740 995 -145 91 -352 158 -525 171 -47 3
-97 7 -112 9 -15 1 -29 1 -30 0z"/>
<path d="M19410 26123 c-247 -33 -384 -89 -556 -227 -79 -64 -190 -185 -252
-277 -88 -131 -201 -383 -247 -552 -53 -199 -78 -464 -78 -842 0 -152 9 -379
18 -424 1 -9 6 -43 9 -76 29 -257 87 -480 263 -1005 127 -379 195 -542 423
-1015 45 -93 99 -206 120 -250 182 -389 354 -732 470 -940 205 -365 302 -567
343 -711 20 -71 38 -140 41 -154 2 -14 13 -61 23 -105 16 -70 18 -128 18 -465
l0 -385 -28 -88 c-75 -242 -242 -468 -401 -543 l-77 -37 -162 0 c-215 0 -262
6 -409 53 -116 38 -254 106 -333 165 -125 94 -249 234 -304 342 -29 58 -81
248 -81 297 0 55 23 136 54 197 29 55 22 66 -10 16 -110 -166 -51 -473 131
-675 137 -153 213 -216 345 -286 210 -110 473 -176 688 -171 179 3 276 47 414
186 155 158 289 414 323 623 3 17 10 56 16 86 31 162 45 287 44 375 -2 88 -15
266 -20 275 -2 3 -6 30 -10 60 -4 30 -8 57 -10 60 -2 3 -6 25 -9 50 -9 65 -62
280 -96 387 -42 131 -195 560 -241 676 -63 159 -85 260 -134 642 -38 293 22
659 155 938 105 221 276 419 430 495 119 59 191 75 335 76 l120 1 70 -39 c194
-107 488 -399 610 -606 97 -165 215 -455 215 -528 0 -16 11 -58 24 -93 20 -55
50 -174 70 -284 21 -112 29 -521 13 -659 -11 -89 -62 -293 -95 -376 -64 -161
-167 -317 -296 -446 -56 -55 -116 -107 -133 -115 -32 -14 -44 -29 -22 -29 47
0 239 187 324 315 74 111 160 280 175 343 6 26 16 65 21 87 15 60 46 231 55
305 15 119 9 417 -10 530 -2 14 -7 48 -10 75 -3 28 -8 61 -10 75 -3 14 -12 66
-20 115 -35 204 -105 441 -175 599 -60 134 -208 359 -313 477 -180 203 -376
346 -527 385 -65 16 -222 22 -299 10 -144 -23 -329 -146 -564 -374 -312 -306
-373 -362 -404 -377 -37 -18 -105 -18 -151 -2 -124 45 -388 328 -543 582 -163
265 -267 560 -329 930 -20 117 -23 137 -36 260 -4 33 -8 70 -10 83 -13 80 -20
287 -19 542 0 333 2 341 80 540 199 501 488 786 879 866 112 23 423 21 509 -3
11 -3 16 -1 12 5 -3 5 -26 13 -52 17 -25 3 -56 9 -67 12 -26 6 -261 11 -297 6z"/>
<path d="M9186 26075 c-43 -8 -84 -19 -90 -26 -8 -9 -7 -10 7 -6 21 8 180 20
257 21 238 1 430 -51 605 -163 83 -53 242 -209 309 -304 47 -65 159 -278 203
-382 46 -111 83 -234 89 -300 9 -92 10 -514 1 -635 -12 -158 -17 -213 -23
-255 -3 -22 -8 -56 -10 -75 -20 -142 -75 -442 -99 -540 -7 -31 -78 -226 -95
-265 -10 -22 -32 -71 -49 -110 -96 -212 -268 -452 -464 -646 -117 -116 -190
-159 -271 -159 -78 0 -78 1 -361 278 -280 275 -313 303 -445 385 -98 60 -174
94 -230 102 -58 9 -203 9 -258 1 -274 -43 -658 -414 -870 -841 -69 -139 -151
-386 -175 -530 -36 -209 -53 -328 -62 -436 -4 -41 -9 -90 -11 -109 -5 -49 -5
-270 0 -300 3 -14 7 -50 10 -80 7 -59 14 -106 21 -130 2 -8 7 -31 10 -50 27
-163 81 -305 168 -448 111 -182 242 -324 345 -377 52 -26 48 -11 -5 23 -84 54
-207 185 -288 307 -98 147 -155 287 -195 473 -21 100 -23 116 -36 237 -13 122
-7 429 10 511 2 12 7 37 10 55 3 19 12 66 21 104 9 39 18 84 21 100 8 41 69
252 100 345 49 143 117 292 174 379 150 228 439 507 619 597 50 25 67 29 160
30 170 2 292 -34 425 -126 294 -203 517 -703 519 -1165 0 -78 -9 -219 -17
-261 -2 -11 -7 -47 -10 -80 -20 -188 -77 -450 -106 -489 -4 -5 -22 -48 -38
-95 -17 -47 -49 -137 -72 -200 -129 -355 -227 -687 -246 -830 -2 -19 -6 -44
-8 -55 -24 -128 -26 -145 -31 -320 -2 -88 0 -178 5 -200 4 -22 11 -58 14 -80
19 -145 51 -291 87 -401 73 -222 273 -485 436 -571 97 -52 145 -61 294 -59
221 4 469 73 676 188 152 84 373 308 429 435 41 92 72 219 72 296 0 90 -35
206 -73 237 -20 16 -19 8 3 -32 23 -40 48 -119 57 -174 7 -46 -29 -208 -67
-297 -79 -188 -305 -399 -528 -492 -78 -33 -200 -75 -200 -70 0 3 -11 0 -24
-5 -39 -15 -160 -23 -322 -23 l-152 0 -74 37 c-120 59 -216 166 -320 356 -36
64 -82 184 -93 238 -14 69 -19 177 -19 432 0 305 4 362 34 500 12 52 23 104
25 114 9 40 58 201 72 235 38 93 254 503 353 671 32 54 215 421 317 635 34 72
99 207 144 300 92 193 178 375 264 560 75 162 203 503 274 730 11 33 36 112
56 175 20 63 38 122 40 130 2 8 13 44 24 80 26 85 69 263 77 320 3 25 8 48 10
51 1 3 6 37 9 75 4 38 9 71 10 74 19 31 27 720 12 910 -9 101 -34 296 -43 319
-2 8 -7 30 -10 49 -19 116 -137 398 -231 552 -132 215 -317 387 -502 466 -56
25 -177 62 -219 69 -21 3 -49 8 -62 11 -53 12 -298 11 -374 -1z"/>
<path d="M16383 17892 c-18 -26 -41 -69 -53 -97 -12 -27 -25 -59 -30 -70 -10
-23 -58 -190 -65 -226 -3 -13 -7 -37 -10 -54 -3 -16 -7 -43 -10 -60 -6 -33 -6
-458 0 -546 5 -84 16 -160 26 -186 5 -13 7 -23 4 -23 -2 0 9 -37 25 -82 70
-207 203 -457 293 -556 281 -307 910 -762 1447 -1044 58 -31 197 -104 310
-163 113 -60 214 -114 225 -120 170 -104 230 -151 368 -285 169 -162 272 -333
358 -590 42 -123 42 -127 42 -260 -1 -111 -6 -162 -32 -286 -30 -148 -36 -182
-26 -173 5 5 48 165 62 229 4 19 8 118 8 220 l0 185 -39 110 c-60 171 -135
319 -213 420 -82 105 -226 246 -335 328 -114 85 -153 107 -624 355 -271 143
-267 141 -402 221 -270 159 -613 403 -832 590 -122 105 -145 126 -239 221
-122 123 -182 214 -278 425 -89 195 -105 255 -129 485 -10 88 -11 396 -3 465
15 122 20 148 40 230 11 44 22 87 24 95 18 75 72 194 111 246 25 32 29 44 17
44 -5 0 -22 -22 -40 -48z"/>
<path d="M12480 17906 c0 -4 15 -29 34 -55 58 -80 125 -255 141 -366 3 -22 8
-46 10 -53 3 -7 8 -45 11 -85 4 -39 8 -81 10 -92 1 -11 3 -56 4 -100 1 -48 4
-72 9 -61 12 31 3 264 -14 347 -22 109 -82 294 -116 353 -30 54 -88 127 -89
112z"/>
<path d="M12689 16988 c0 -46 -2 -99 -4 -118 -11 -128 -16 -164 -30 -238 -36
-186 -162 -458 -288 -621 -75 -96 -316 -325 -411 -390 -12 -8 -23 -18 -26 -21
-3 -4 -61 -49 -130 -102 -270 -206 -669 -453 -1020 -633 -52 -26 -120 -62
-150 -78 -30 -16 -97 -52 -149 -79 -151 -80 -239 -135 -325 -203 -192 -150
-346 -327 -431 -494 -43 -87 -119 -299 -132 -371 -12 -70 -6 -314 11 -395 19
-91 54 -215 61 -215 6 0 6 3 -30 175 -33 158 -42 349 -20 443 41 174 152 414
250 542 73 94 226 241 352 336 71 54 234 144 638 354 243 126 427 237 677 406
191 129 466 331 508 374 3 3 32 28 65 55 97 81 234 216 280 275 57 75 135 214
194 346 100 228 120 318 124 562 1 94 -1 172 -5 172 -5 0 -8 -37 -9 -82z"/>
<path d="M14237 15887 c-3 -8 -1 -20 4 -28 6 -10 9 -7 9 14 0 29 -5 35 -13 14z"/>
<path d="M14244 15755 c0 -49 1 -71 3 -48 2 23 2 64 0 90 -2 26 -3 8 -3 -42z"/>
<path d="M14241 15558 c0 -49 2 -88 7 -88 4 0 6 28 4 62 -5 107 -9 117 -11 26z"/>
<path d="M14239 15339 c0 -68 -2 -155 -4 -194 -5 -137 -17 -348 -20 -365 -2
-9 -6 -61 -10 -116 -3 -54 -8 -115 -10 -134 -2 -19 -6 -71 -10 -115 -4 -44 -8
-82 -10 -85 -1 -3 -6 -41 -10 -84 -4 -43 -9 -88 -11 -100 -2 -12 -6 -39 -8
-61 -8 -70 -17 -139 -21 -155 -2 -8 -6 -40 -10 -70 -3 -30 -8 -71 -10 -90 -3
-19 -7 -62 -10 -95 -4 -33 -8 -67 -10 -75 -2 -8 -7 -43 -10 -78 -4 -35 -8 -72
-10 -82 -2 -10 -6 -40 -10 -67 -25 -177 -28 -198 -32 -218 -2 -11 -6 -38 -9
-60 -3 -22 -7 -49 -9 -61 -3 -12 -7 -39 -10 -60 -21 -140 -64 -310 -137 -539
-130 -414 -248 -610 -443 -740 -107 -71 -158 -86 -294 -86 -109 0 -124 3 -177
28 -148 68 -265 258 -311 503 -19 103 -24 309 -9 415 2 22 8 78 11 125 3 47 8
98 9 113 2 16 0 25 -4 20 -5 -4 -11 -28 -14 -53 -3 -25 -10 -85 -17 -135 -15
-123 -19 -335 -8 -420 40 -294 177 -530 347 -596 47 -19 77 -23 177 -23 107
-1 127 2 180 24 224 95 387 296 513 635 36 97 141 449 157 530 11 53 73 419
80 470 6 50 13 99 20 145 2 14 7 48 10 75 4 28 8 61 10 75 2 14 9 63 15 110 6
47 13 96 15 110 2 14 7 50 10 80 3 30 8 66 10 80 4 26 11 85 21 168 3 26 9 81
14 122 5 41 12 102 15 135 3 33 8 71 10 85 3 14 7 57 10 95 3 39 7 84 9 100
19 148 37 818 22 832 -3 4 -6 -50 -7 -118z"/>
<path d="M14664 15320 c-1 -65 12 -65 15 0 1 28 -2 50 -6 50 -4 0 -8 -23 -9
-50z"/>
<path d="M14669 15254 c-6 -62 11 -461 26 -614 2 -19 6 -68 10 -108 4 -41 8
-81 10 -90 1 -9 6 -48 10 -87 3 -38 8 -83 10 -100 4 -27 18 -141 31 -255 3
-25 7 -56 9 -70 2 -14 7 -43 9 -65 6 -49 26 -199 31 -240 3 -16 9 -68 15 -115
12 -90 19 -139 25 -180 3 -14 9 -56 15 -95 5 -38 12 -81 14 -95 2 -14 7 -46
10 -71 16 -115 42 -247 66 -330 12 -40 24 -83 27 -94 70 -257 114 -384 175
-516 119 -253 282 -420 476 -488 135 -46 334 -17 430 64 68 57 157 190 186
278 59 176 80 377 62 572 -4 44 -9 105 -12 135 -7 72 -22 162 -30 169 -5 5 0
-82 11 -179 40 -356 5 -611 -112 -812 -60 -103 -173 -197 -257 -214 -34 -7
-222 -5 -253 2 -78 19 -190 90 -274 173 -128 129 -220 301 -315 591 -28 85
-99 330 -108 375 -34 155 -45 214 -61 330 -3 22 -12 81 -20 130 -17 112 -24
159 -31 210 -2 22 -11 90 -19 150 -7 61 -17 137 -21 170 -4 33 -8 71 -10 85
-1 14 -7 61 -13 105 -19 136 -20 148 -30 230 -6 44 -13 110 -16 147 -3 37 -7
75 -9 85 -2 10 -7 56 -11 103 -3 47 -8 96 -10 110 -2 14 -7 72 -10 130 -4 58
-9 114 -11 124 -2 10 -6 94 -10 185 -3 91 -8 168 -10 170 -2 2 -4 0 -5 -5z"/>
<path d="M23925 14218 c-85 -45 -175 -118 -305 -248 -177 -177 -307 -340 -498
-623 -162 -240 -315 -590 -385 -877 -14 -57 -21 -88 -42 -200 -3 -13 -7 -42
-11 -65 -3 -22 -18 -110 -34 -195 -112 -604 -204 -899 -404 -1290 -100 -196
-184 -325 -320 -490 -70 -85 -568 -589 -701 -709 -296 -268 -821 -791 -1012
-1006 -114 -128 -123 -139 -197 -245 -231 -328 -384 -657 -648 -1395 -27 -77
-70 -196 -95 -265 -101 -279 -215 -634 -339 -1060 -26 -88 -35 -115 -183 -575
-120 -372 -162 -522 -287 -1020 -143 -573 -150 -595 -224 -750 -28 -58 -73
-153 -101 -213 -74 -154 -215 -397 -409 -707 -72 -115 -398 -604 -497 -745
-263 -377 -578 -723 -958 -1051 -115 -100 -358 -260 -528 -349 -26 -14 -57
-33 -70 -42 -19 -15 -20 -19 -7 -27 63 -42 384 119 754 378 172 120 186 130
333 241 198 149 324 250 487 390 125 106 164 142 280 252 173 163 220 209 501
487 370 364 447 437 611 578 12 10 59 52 105 93 161 145 195 176 274 246 364
325 539 473 721 611 303 229 876 638 1099 784 304 201 772 475 930 546 151 67
145 65 360 145 297 110 571 179 895 223 25 3 70 10 100 15 30 5 80 12 110 15
30 4 66 8 80 10 38 5 169 18 220 21 71 5 1081 4 1120 0 19 -2 77 -7 129 -11
51 -4 101 -8 111 -10 9 -2 41 -6 71 -10 30 -3 65 -8 79 -10 96 -14 179 -26
205 -29 38 -5 152 -24 185 -31 14 -3 42 -7 62 -10 20 -3 56 -9 80 -14 24 -6
54 -12 68 -14 95 -18 255 -50 306 -62 34 -8 73 -16 85 -19 13 -2 65 -14 114
-26 50 -12 97 -23 105 -25 51 -11 158 -40 243 -67 54 -17 100 -28 103 -25 10
9 -436 138 -556 160 -14 3 -63 14 -110 26 -107 26 -169 40 -195 45 -40 7 -91
16 -115 21 -128 26 -399 66 -605 90 -22 3 -58 7 -80 10 -22 2 -71 7 -110 10
-38 4 -90 8 -115 10 -305 29 -784 33 -1135 10 -55 -4 -113 -8 -130 -10 -16 -2
-64 -7 -105 -10 -126 -12 -225 -24 -250 -30 -8 -2 -42 -6 -75 -10 -97 -10
-447 -82 -558 -115 -239 -69 -605 -208 -778 -295 -102 -51 -418 -230 -469
-265 -14 -9 -30 -19 -36 -21 -21 -8 -340 -211 -449 -286 -241 -167 -843 -598
-855 -612 -3 -4 -39 -31 -80 -61 -82 -60 -302 -231 -310 -241 -3 -3 -34 -30
-70 -60 -36 -29 -70 -58 -76 -64 -6 -5 -42 -37 -80 -70 -37 -33 -75 -67 -84
-75 -8 -8 -94 -85 -190 -170 -96 -85 -180 -159 -186 -165 -6 -5 -44 -39 -85
-75 -40 -36 -114 -101 -164 -145 -117 -103 -286 -265 -709 -680 -98 -96 -389
-374 -440 -420 -66 -60 -234 -203 -316 -270 -25 -20 -54 -44 -65 -53 -175
-144 -645 -483 -824 -595 -157 -98 -371 -209 -371 -193 0 2 51 34 113 72 279
169 355 224 611 444 96 81 195 184 320 330 77 91 143 167 146 170 6 6 100 116
126 149 10 13 24 28 29 35 51 58 416 564 541 751 200 298 302 477 574 1010
422 825 583 1062 1050 1540 183 188 318 301 558 468 534 372 830 524 1452 747
153 55 208 83 99 50 -63 -18 -105 -33 -299 -103 -475 -172 -800 -349 -1335
-725 -297 -209 -445 -333 -680 -567 -202 -202 -265 -276 -395 -461 -68 -99
-135 -192 -149 -209 l-24 -30 7 40 c5 22 10 50 12 61 2 12 13 66 25 120 11 55
22 108 25 119 2 11 9 45 15 75 33 164 119 472 195 695 40 119 149 434 157 455
10 26 188 584 192 603 26 115 397 1147 480 1332 46 103 139 302 145 310 4 6
27 48 51 95 92 180 262 454 390 626 68 92 326 356 980 999 688 678 891 927
1099 1350 43 88 95 210 115 270 21 61 46 128 56 151 11 22 19 47 19 55 0 8 13
57 29 109 27 87 61 233 76 320 3 19 8 46 10 60 3 14 7 34 9 45 4 19 15 111 21
165 36 345 77 578 135 765 54 176 189 474 284 625 80 128 324 468 370 516 6 6
39 42 72 80 120 134 250 253 359 329 102 71 112 81 40 43z"/>
<path d="M4951 14196 c2 -2 33 -26 69 -52 254 -185 491 -448 742 -821 177
-265 320 -589 397 -904 17 -68 33 -142 36 -164 3 -22 8 -51 10 -65 3 -14 7
-45 10 -70 3 -25 7 -56 10 -70 2 -14 7 -54 10 -89 15 -156 35 -293 70 -476 28
-144 140 -505 217 -700 66 -167 213 -429 329 -586 49 -67 213 -265 239 -289 3
-3 34 -39 69 -80 60 -70 321 -332 997 -1001 384 -381 449 -449 534 -565 208
-285 437 -698 580 -1044 56 -137 181 -462 210 -550 10 -30 36 -104 58 -165 21
-60 60 -173 86 -250 26 -77 51 -149 55 -160 5 -11 39 -117 76 -235 70 -224
206 -638 295 -895 107 -310 199 -641 250 -900 5 -27 11 -59 14 -70 16 -71 44
-220 41 -223 -2 -2 -25 27 -51 65 -237 337 -320 440 -509 628 -242 243 -539
476 -970 762 -357 237 -652 388 -1013 517 -37 13 -101 37 -142 51 -119 44
-254 85 -244 75 5 -5 48 -23 94 -39 561 -195 898 -358 1300 -628 403 -270 510
-355 742 -587 182 -181 340 -357 434 -481 60 -80 194 -272 194 -279 0 -2 22
-36 49 -77 44 -68 231 -386 231 -394 0 -2 17 -34 38 -72 60 -105 125 -229 240
-453 173 -339 306 -567 445 -765 74 -104 407 -556 417 -565 3 -3 44 -54 90
-115 74 -96 177 -226 283 -359 35 -44 186 -225 202 -242 6 -6 35 -42 65 -79
100 -125 255 -271 418 -393 61 -46 112 -86 112 -88 0 -9 -252 162 -482 328
-166 121 -566 432 -588 457 -3 4 -21 19 -40 35 -106 86 -301 270 -615 577
-126 124 -252 248 -280 274 -27 26 -95 91 -150 144 -118 112 -192 181 -294
271 -40 36 -79 70 -85 75 -6 6 -49 44 -96 85 -47 41 -101 89 -120 107 -19 17
-44 40 -56 50 -30 26 -175 156 -188 169 -25 24 -125 112 -171 151 -28 23 -63
53 -80 68 -104 93 -514 411 -651 505 -12 8 -77 56 -145 106 -362 265 -691 489
-964 654 -439 266 -600 347 -945 475 -41 15 -84 31 -95 36 -228 92 -658 190
-985 224 -30 4 -65 8 -76 10 -12 2 -61 6 -110 10 -49 4 -91 9 -94 10 -3 2 -66
6 -140 10 -74 4 -160 9 -190 11 -69 5 -562 4 -655 -1 -125 -7 -342 -23 -401
-30 -17 -2 -66 -7 -110 -10 -43 -4 -81 -9 -84 -10 -3 -2 -35 -6 -70 -10 -36
-3 -76 -8 -90 -10 -14 -2 -45 -7 -70 -10 -46 -6 -314 -51 -360 -60 -14 -3 -50
-9 -80 -15 -83 -15 -100 -19 -118 -24 -9 -3 -28 -7 -42 -10 -170 -32 -749
-190 -738 -202 2 -2 44 8 93 22 83 23 350 92 385 99 8 2 53 12 100 23 198 47
429 95 515 107 23 3 50 7 60 9 11 2 56 9 100 16 44 6 92 13 108 16 63 10 85
13 137 19 30 4 62 9 71 10 9 2 40 6 70 10 30 4 56 8 59 10 3 2 48 6 100 10 52
4 111 9 130 11 51 5 1075 5 1140 0 50 -5 156 -15 220 -21 14 -2 43 -5 65 -9
22 -3 58 -8 80 -11 21 -2 75 -10 120 -16 44 -6 89 -13 100 -14 84 -12 279 -51
378 -76 213 -54 554 -173 760 -265 327 -147 918 -514 1504 -933 50 -36 101
-73 113 -81 12 -8 52 -37 90 -65 37 -27 134 -99 216 -160 130 -96 440 -338
454 -354 3 -4 57 -51 120 -106 63 -54 117 -102 120 -105 3 -3 45 -41 95 -85
49 -44 95 -84 101 -90 56 -51 212 -191 369 -330 190 -168 277 -251 619 -588
640 -630 792 -765 1279 -1130 396 -298 712 -496 916 -577 55 -21 131 -35 131
-23 0 4 -62 38 -138 75 -127 62 -257 142 -347 213 -181 144 -450 433 -645 694
-14 19 -59 78 -100 132 -41 53 -84 110 -95 125 -11 15 -53 70 -94 123 -391
504 -619 846 -809 1211 -35 69 -75 143 -87 165 -54 96 -218 421 -275 545 -55
118 -120 295 -134 362 -3 13 -15 59 -27 103 -11 44 -22 87 -24 95 -36 180
-208 787 -318 1125 -102 312 -137 424 -261 835 -127 423 -189 604 -418 1225
-130 352 -204 528 -301 720 -153 305 -308 536 -490 733 -109 118 -778 784
-891 887 -311 283 -664 638 -812 815 -199 240 -370 558 -510 948 -31 87 -100
333 -110 391 -3 14 -7 33 -10 41 -3 8 -9 35 -14 60 -5 25 -19 90 -30 145 -27
125 -25 115 -40 205 -6 41 -16 95 -20 120 -5 25 -11 61 -14 80 -3 19 -8 52
-12 73 -40 259 -208 700 -356 937 -75 118 -92 143 -210 305 -143 197 -254 330
-344 414 -125 116 -325 271 -350 271 -4 0 -5 -2 -3 -4z"/>
<path d="M18005 13313 c-52 -9 -65 -14 -60 -23 3 -6 19 -10 35 -10 50 0 137
-39 169 -76 77 -87 105 -177 105 -339 0 -139 -17 -224 -67 -337 -48 -109 -227
-275 -316 -293 -9 -2 -34 -7 -56 -12 -54 -12 -173 -9 -220 7 -54 18 -112 74
-142 139 -20 44 -25 71 -25 126 0 39 3 77 5 85 2 8 7 29 12 45 4 17 25 71 46
122 22 51 39 95 39 98 0 13 -57 -52 -102 -115 -109 -156 -250 -427 -318 -610
-23 -63 -43 -119 -44 -125 -2 -5 -16 -55 -33 -110 -46 -146 -69 -237 -93 -355
-12 -58 -23 -112 -25 -120 -9 -36 -84 -398 -88 -425 -3 -16 -12 -64 -21 -105
-8 -41 -18 -91 -21 -110 -5 -30 -58 -312 -71 -375 -2 -11 -7 -42 -10 -70 -4
-27 -8 -53 -10 -56 -2 -3 -10 -55 -19 -115 -9 -60 -18 -124 -21 -141 -9 -56
17 -42 89 48 49 61 81 134 123 280 76 269 167 372 414 472 211 85 274 114 413
184 395 202 657 429 873 758 189 288 295 594 288 832 -7 252 -49 409 -134 500
-88 94 -237 174 -375 202 -81 16 -295 31 -340 24z"/>
<path d="M10695 13272 c-61 -7 -195 -43 -263 -71 -276 -112 -364 -272 -366
-666 -1 -129 7 -188 41 -305 87 -301 288 -631 527 -863 77 -75 261 -222 331
-264 218 -132 381 -213 634 -314 198 -80 251 -113 321 -204 57 -73 94 -156
135 -296 44 -151 69 -206 132 -284 64 -78 83 -83 73 -18 -4 26 -10 71 -14 98
-3 28 -8 62 -11 78 -7 36 -12 64 -19 107 -8 48 -55 311 -60 335 -56 287 -69
355 -73 380 -2 17 -8 46 -13 65 -5 19 -12 55 -15 80 -4 24 -8 47 -10 51 -2 3
-12 41 -21 85 -22 107 -21 102 -34 159 -7 28 -14 64 -17 80 -19 125 -140 522
-206 675 -104 241 -292 559 -362 612 -21 16 -20 10 15 -72 56 -127 73 -201 68
-286 -8 -119 -79 -220 -173 -245 -101 -28 -245 -12 -336 37 -58 32 -175 142
-217 205 -63 94 -105 266 -101 418 2 107 12 151 49 227 52 108 128 160 233
163 33 1 36 17 5 27 -25 8 -203 12 -253 6z"/>
<path d="M16261 12904 c0 -11 3 -14 6 -6 3 7 2 16 -1 19 -3 4 -6 -2 -5 -13z"/>
<path d="M12646 12863 c-6 -14 -5 -15 5 -6 7 7 10 15 7 18 -3 3 -9 -2 -12 -12z"/>
<path d="M17895 10375 c-117 -26 -265 -96 -424 -203 -445 -299 -766 -753
-1013 -1437 -22 -60 -41 -117 -43 -125 -2 -8 -8 -27 -14 -42 -20 -52 -61 -215
-97 -383 -32 -154 -76 -478 -91 -685 -16 -211 -8 -1061 11 -1290 9 -94 17
-176 21 -190 2 -8 6 -37 10 -65 10 -83 17 -129 39 -235 44 -217 97 -412 211
-775 46 -147 88 -295 105 -365 5 -19 29 -115 54 -214 25 -98 48 -188 50 -200
3 -11 16 -75 30 -141 13 -66 28 -147 31 -180 4 -33 9 -73 11 -90 5 -41 5 -324
0 -355 -3 -14 -7 -60 -11 -102 -3 -42 -8 -87 -10 -98 -2 -12 -7 -48 -10 -80
-3 -32 -14 -93 -24 -135 -10 -42 -15 -73 -11 -68 10 11 38 100 45 143 3 19 7
46 10 60 38 206 52 568 27 710 -6 36 -14 83 -17 105 -17 109 -101 455 -201
825 -8 30 -37 125 -64 210 -77 247 -107 348 -135 455 -42 158 -67 258 -71 285
-5 28 -34 185 -40 213 -2 10 -6 45 -9 78 -4 33 -8 69 -10 81 -2 11 -7 63 -10
116 -3 54 -8 120 -10 147 -25 331 -25 891 0 1195 8 94 38 339 49 397 2 10 7
41 10 68 4 28 9 57 11 65 2 8 6 31 9 50 20 129 80 360 140 538 168 502 425
952 696 1222 86 85 262 229 363 297 143 95 363 192 444 196 7 0 10 4 7 9 -3 4
-6 8 -7 7 -1 0 -29 -7 -62 -14z"/>
<path d="M10946 10341 c-3 -4 9 -8 26 -9 43 -3 211 -68 288 -110 36 -20 74
-41 85 -47 124 -67 405 -304 517 -436 209 -248 366 -523 538 -944 8 -18 20
-52 73 -205 59 -166 125 -457 162 -705 3 -22 7 -51 10 -65 2 -14 6 -46 9 -72
3 -27 9 -69 12 -95 7 -56 9 -74 19 -208 4 -55 8 -120 10 -145 2 -25 4 -96 4
-157 1 -62 5 -113 10 -113 13 0 2 458 -14 550 -2 14 -7 46 -10 73 -11 98 -17
143 -21 167 -2 14 -6 43 -9 65 -3 22 -7 51 -10 65 -3 14 -7 41 -10 60 -108
705 -470 1476 -875 1865 -130 125 -322 271 -457 345 -133 75 -342 145 -357
121z"/>
<path d="M12701 6838 c-1 -101 -4 -210 -6 -243 -2 -33 -6 -125 -10 -205 -7
-146 -8 -164 -19 -300 -17 -209 -94 -598 -151 -767 -8 -23 -16 -52 -19 -65 -2
-13 -11 -45 -20 -73 -22 -73 -125 -402 -141 -456 -13 -42 -91 -336 -100 -378
-2 -9 -17 -70 -34 -136 -83 -337 -102 -476 -96 -720 2 -110 6 -209 9 -220 2
-12 7 -48 11 -80 15 -134 59 -325 76 -325 4 0 1 21 -7 48 -8 26 -17 63 -20 82
-3 19 -7 46 -10 60 -2 14 -7 48 -10 75 -2 28 -6 64 -9 80 -19 131 -25 400 -12
530 14 136 47 297 119 574 22 84 41 162 44 172 2 11 6 27 8 37 10 45 133 464
176 602 173 557 227 931 234 1633 2 141 0 257 -4 257 -4 0 -8 -82 -9 -182z"/>
<path d="M16701 2868 c0 -9 -4 -25 -7 -35 -5 -17 -5 -17 6 0 6 10 9 25 7 35
-4 15 -5 15 -6 0z"/>
<path d="M12211 2813 c-1 -12 4 -25 9 -28 12 -7 12 2 0 30 -8 19 -9 19 -9 -2z"/>
<path d="M15602 2598 c-7 -7 -12 -17 -12 -24 0 -28 -155 -234 -257 -340 -164
-171 -400 -305 -583 -332 -60 -8 -270 -7 -345 2 -121 15 -241 53 -374 121
-110 55 -150 87 -346 277 -162 157 -255 241 -260 236 -5 -5 72 -362 109 -510
20 -76 51 -171 70 -213 60 -129 170 -218 223 -180 12 9 13 16 4 33 -28 52 -4
161 44 198 84 64 136 3 250 -291 82 -209 173 -337 274 -387 41 -21 60 -23 186
-23 127 0 144 2 188 24 81 39 173 169 266 371 88 192 134 272 170 295 21 13
71 14 98 2 21 -9 33 -30 39 -66 3 -18 -25 -91 -43 -112 -20 -24 -16 -49 7 -49
68 0 171 100 229 224 69 146 92 268 96 521 4 220 -1 255 -33 223z"/>
</g>
</svg>
